<?xml version="1.0" encoding="UTF-8"?> <svg xmlns="http://www.w3.org/2000/svg" id="Layer_1" data-name="Layer 1" viewBox="0 0 350.76 51.87"><defs><style>.cls-1{fill:#0054a5;}.cls-1,.cls-2{fill-rule:evenodd;}.cls-2{fill:#ec1c24;}.cls-3{fill:#221f1f;}.cls-4{fill:#f06022;}.cls-5{fill:#e91d25;}.cls-6{fill:#f59d1e;}.cls-7{fill:#374da0;}.cls-8{fill:none;}.cls-9{fill:#7474b5;}.cls-10{fill:#1d9fda;}</style></defs><path class="cls-1" d="M211.14,26.28h.78a2.45,2.45,0,0,0,1.48-.34,1.41,1.41,0,0,0,.44-1.15,1.41,1.41,0,0,0-.44-1.17,2.21,2.21,0,0,0-1.45-.34h-.81v3Zm-2.91,1.55v-6.1h3.5a18,18,0,0,1,2,.06,4.94,4.94,0,0,1,1.12.28,3,3,0,0,1,1.42,1.05,3,3,0,0,1,.47,1.67,2.72,2.72,0,0,1-.59,1.74,3.56,3.56,0,0,1-1.74,1,5.17,5.17,0,0,1-1.08.19c-.46,0-1.14.06-2.14.06Zm9.57-5v-1.3h2.66v1.3Zm0,5V23.31h2.66v4.52Zm4,0V23.31h2.42V24a2.78,2.78,0,0,1,1-.59,4.49,4.49,0,0,1,1.3-.19,4,4,0,0,1,1.08.13,1.93,1.93,0,0,1,.81.4,1.45,1.45,0,0,1,.43.62,3.42,3.42,0,0,1,.12,1.11v2.36h-2.63V25.47a.84.84,0,0,0-.21-.68,1.06,1.06,0,0,0-.69-.18,1.18,1.18,0,0,0-.77.21.85.85,0,0,0-.22.65v2.36Zm12.85-2c-.25.06-.59.12-1,.18-.68.12-1,.28-1,.5a.39.39,0,0,0,.18.31,1.36,1.36,0,0,0,.56.09,1.53,1.53,0,0,0,1-.22.67.67,0,0,0,.31-.65v-.15s0-.06,0-.06Zm.25,2-.16-.44a4.81,4.81,0,0,1-1.08.44,4.63,4.63,0,0,1-1.33.15,3.56,3.56,0,0,1-1.77-.37,1.18,1.18,0,0,1-.58-1.05,1.05,1.05,0,0,1,.58-1,8.75,8.75,0,0,1,2.29-.47c.16,0,.34,0,.59,0,.84,0,1.24-.18,1.24-.4a.29.29,0,0,0-.22-.31,2.37,2.37,0,0,0-.74-.06,1.81,1.81,0,0,0-.62.09.44.44,0,0,0-.25.34h-2.6a1.35,1.35,0,0,1,.93-1.15,6.68,6.68,0,0,1,2.63-.4,7.18,7.18,0,0,1,1.52.13,3.57,3.57,0,0,1,1.08.27,1.84,1.84,0,0,1,.69.47,1.51,1.51,0,0,1,.18.8V27.3a.48.48,0,0,0,.06.22.76.76,0,0,0,.22.18v.13Zm9.66-2.39h2.72A2.36,2.36,0,0,1,246,27.33a6,6,0,0,1-3.06.65,5.79,5.79,0,0,1-3.41-.86,2.66,2.66,0,0,1-1.2-2.33,2.79,2.79,0,0,1,1.17-2.38,6,6,0,0,1,3.38-.87,6.1,6.1,0,0,1,3.06.65,2.42,2.42,0,0,1,1.27,1.86h-2.79a.85.85,0,0,0-.43-.71,2,2,0,0,0-1.08-.25,1.58,1.58,0,0,0-1.27.43,1.6,1.6,0,0,0-.44,1.27,1.72,1.72,0,0,0,.44,1.24,2,2,0,0,0,1.33.44,1.92,1.92,0,0,0,1.08-.28,1.13,1.13,0,0,0,.47-.75Zm8.11.38q-.37.09-1,.18c-.65.12-1,.28-1,.5s.06.21.21.31a1.36,1.36,0,0,0,.56.09,1.61,1.61,0,0,0,1-.22.72.72,0,0,0,.31-.65.22.22,0,0,0,0-.15v-.06Zm.25,2-.16-.44a4.51,4.51,0,0,1-1.11.44,4.68,4.68,0,0,1-1.33.15,3.34,3.34,0,0,1-1.74-.37,1.22,1.22,0,0,1-.62-1.05,1.09,1.09,0,0,1,.62-1,8.65,8.65,0,0,1,2.29-.47c.13,0,.34,0,.56,0,.84,0,1.27-.18,1.27-.4a.32.32,0,0,0-.22-.31,2.37,2.37,0,0,0-.74-.06,1.55,1.55,0,0,0-.62.09.46.46,0,0,0-.28.34h-2.57a1.26,1.26,0,0,1,.93-1.15,6.58,6.58,0,0,1,2.63-.4,7.18,7.18,0,0,1,1.52.13,3.66,3.66,0,0,1,1.08.27A1.58,1.58,0,0,1,255,24a1.41,1.41,0,0,1,.19.8V27.3a.29.29,0,0,0,.09.22c0,.09.13.12.22.18v.13Zm3.71,0V23.31H259v.83a1.51,1.51,0,0,1,.74-.71,3.23,3.23,0,0,1,1.3-.22h.25V25a.89.89,0,0,0-.28,0h-.25a2.16,2.16,0,0,0-1.17.22.79.79,0,0,0-.41.77v1.86Zm12.57,0h-2.35v-.56a2.53,2.53,0,0,1-1,.53,4,4,0,0,1-1.24.18,3,3,0,0,1-2-.65,2.26,2.26,0,0,1,0-3.47,3,3,0,0,1,2-.68,4.08,4.08,0,0,1,1.08.16,2.43,2.43,0,0,1,.87.46V21.73h2.6v6.1Zm-3.65-1.18a1.12,1.12,0,0,0,.8-.28,1,1,0,0,0,.28-.77.89.89,0,0,0-.28-.74,1,1,0,0,0-.8-.28,1,1,0,0,0-.81.28.92.92,0,0,0-.28.74,1,1,0,0,0,.28.77,1.11,1.11,0,0,0,.81.28Z" transform="translate(-23.19 0.9)"></path><path class="cls-1" d="M222.66,38.14H254.3a13.19,13.19,0,0,0,12.2-8.21H265a11.76,11.76,0,0,1-10.71,6.88H222.66A11.79,11.79,0,0,1,212,29.93h-1.46a13.15,13.15,0,0,0,12.17,8.21Zm43.84-18A13.18,13.18,0,0,0,254.3,12H222.66a13.14,13.14,0,0,0-12.17,8.2H212a11.78,11.78,0,0,1,10.71-6.87H254.3A11.75,11.75,0,0,1,265,20.15Z" transform="translate(-23.19 0.9)"></path><path class="cls-2" d="M238.6,8.29a16.8,16.8,0,0,1,16,11.86h-32a16.8,16.8,0,0,1,16-11.86Zm16,21.64a16.73,16.73,0,0,1-32,0Z" transform="translate(-23.19 0.9)"></path><path class="cls-3" d="M170.1,43.46v.1h.14a.08.08,0,0,0,0,0,.05.05,0,0,0,0,0h-.14Zm.09-.07a.2.2,0,0,1,.11,0,.15.15,0,0,1,0,.09.08.08,0,0,1,0,.07.12.12,0,0,1-.09,0l.12.14h-.09l-.12-.14h0v.14H170v-.37Zm0,.5a.21.21,0,0,0,.12,0,.33.33,0,0,0,.1-.06.36.36,0,0,0,.07-.1.33.33,0,0,0,0-.24.36.36,0,0,0-.07-.1l-.1-.07-.12,0-.12,0-.1.07a.33.33,0,0,0-.06.34.33.33,0,0,0,.06.1.27.27,0,0,0,.1.06l.12,0m0-.71a.45.45,0,0,1,.29.12.38.38,0,0,1,.09.13.39.39,0,0,1,0,.3.44.44,0,0,1-.22.22.41.41,0,0,1-.16,0L170,44a.3.3,0,0,1-.13-.09.38.38,0,0,1-.09-.13.42.42,0,0,1,0-.31.34.34,0,0,1,.09-.12.3.3,0,0,1,.13-.09.41.41,0,0,1,.16,0M132.9,41.76A1.21,1.21,0,1,1,134.11,43a1.2,1.2,0,0,1-1.21-1.28m3.23,0v-2h-.87v.49a1.5,1.5,0,0,0-1.26-.59,2.1,2.1,0,0,0,0,4.2,1.5,1.5,0,0,0,1.26-.59v.49h.87v-2Zm29.35,0A1.21,1.21,0,1,1,166.69,43a1.2,1.2,0,0,1-1.21-1.28m3.24,0v-3.6h-.87v2.09a1.53,1.53,0,0,0-1.26-.59,2.1,2.1,0,0,0,0,4.2,1.53,1.53,0,0,0,1.26-.59v.49h.87Zm-21.81-1.32a1,1,0,0,1,1,1h-2.07a1,1,0,0,1,1.06-1m0-.78a2.1,2.1,0,0,0,.06,4.2,2.44,2.44,0,0,0,1.64-.56l-.43-.65a1.88,1.88,0,0,1-1.16.42,1.12,1.12,0,0,1-1.2-1h3a3.25,3.25,0,0,0,0-.33,1.92,1.92,0,0,0-1.9-2.1m10.49,2.1A1.21,1.21,0,1,1,158.63,43a1.2,1.2,0,0,1-1.21-1.28m3.23,0v-2h-.87v.49a1.5,1.5,0,0,0-1.26-.59,2.1,2.1,0,0,0,0,4.2,1.5,1.5,0,0,0,1.26-.59v.49h.87v-2Zm-8.14,0a2,2,0,0,0,2.13,2.1,2.09,2.09,0,0,0,1.44-.48l-.42-.7a1.77,1.77,0,0,1-1,.36,1.28,1.28,0,0,1,0-2.56,1.77,1.77,0,0,1,1,.36l.42-.7a2.11,2.11,0,0,0-1.44-.48,2,2,0,0,0-2.13,2.1m11.2-2.1a1.17,1.17,0,0,0-1.05.59v-.49h-.86v4h.87V41.52c0-.66.28-1,.85-1a1.44,1.44,0,0,1,.54.1l.27-.82a2,2,0,0,0-.62-.11m-23.28.42a3.06,3.06,0,0,0-1.63-.42c-1,0-1.66.49-1.66,1.28s.48,1.05,1.37,1.18l.41.06c.48.07.7.19.7.42s-.31.48-.91.48a2.07,2.07,0,0,1-1.32-.42l-.41.68a2.88,2.88,0,0,0,1.73.52c1.15,0,1.82-.54,1.82-1.3s-.53-1.07-1.4-1.2l-.41-.06c-.37,0-.67-.12-.67-.39s.28-.47.76-.47a2.55,2.55,0,0,1,1.24.34l.38-.7Zm11.21-.42a1.19,1.19,0,0,0-1.06.59v-.49h-.86v4h.87V41.52c0-.66.28-1,.85-1a1.49,1.49,0,0,1,.55.1l.26-.82a2,2,0,0,0-.62-.11m-7.41.1H142.8V38.55h-.88v1.21h-.81v.8h.81v1.82c0,.93.36,1.48,1.39,1.48a2.08,2.08,0,0,0,1.09-.31l-.25-.74a1.62,1.62,0,0,1-.77.22c-.44,0-.58-.27-.58-.67v-1.8h1.42Zm-13,4V41.25a1.49,1.49,0,0,0-1.57-1.59,1.58,1.58,0,0,0-1.41.71,1.47,1.47,0,0,0-1.32-.71,1.32,1.32,0,0,0-1.17.6v-.5h-.87v4h.88V41.54a.93.93,0,0,1,1-1.06c.57,0,.87.38.87,1.05v2.23h.87V41.54a.94.94,0,0,1,1-1.06c.59,0,.88.38.88,1.05v2.23Z" transform="translate(-23.19 0.9)"></path><path class="cls-4" d="M153.3,33H140.14V9.32H153.3Z" transform="translate(-23.19 0.9)"></path><path class="cls-5" d="M141,21.15a15,15,0,0,1,5.74-11.83,15,15,0,1,0,0,23.66A15,15,0,0,1,141,21.15" transform="translate(-23.19 0.9)"></path><path class="cls-6" d="M171.06,21.15A15,15,0,0,1,146.72,33a15,15,0,0,0,0-23.66,15,15,0,0,1,24.34,11.83" transform="translate(-23.19 0.9)"></path><path class="cls-7" d="M343.77,11c-6.15,0-11.64,3.18-11.64,9.07,0,6.75,9.74,7.22,9.74,10.61,0,1.42-1.63,2.7-4.43,2.7a14.78,14.78,0,0,1-6.93-1.78l-1.27,5.94a21.77,21.77,0,0,0,7.95,1.5c6.72,0,12-3.34,12-9.32,0-7.14-9.78-7.59-9.78-10.74,0-1.11,1.34-2.34,4.13-2.34a14.06,14.06,0,0,1,5.71,1.3l1.24-5.74A18.63,18.63,0,0,0,343.77,11Zm-56.23.43-.15.87a29,29,0,0,1,4.92,1.41c3,1.09,3.21,1.72,3.71,3.67l5.51,21.22h7.37l11.37-27.17h-7.36l-7.3,18.47-3-15.65a3.23,3.23,0,0,0-3.36-2.82Zm35.69,0-5.78,27.17h7l5.75-27.17Zm39.14,0c-1.69,0-2.59.91-3.25,2.49L348.84,38.62h7.36l1.42-4.12h9l.87,4.12H374l-5.67-27.17Zm1,7.34L365.51,29h-5.85Z" transform="translate(-23.19 0.9)"></path><rect class="cls-8" width="63.11" height="51.87"></rect><path d="M44.85,44.36V41.78a1.54,1.54,0,0,0-1.42-1.63h-.2a1.57,1.57,0,0,0-1.44.73,1.49,1.49,0,0,0-1.36-.73,1.34,1.34,0,0,0-1.2.61v-.51h-.89v4.11h.9V42.08A1,1,0,0,1,40.06,41h.18c.6,0,.9.39.9,1.08v2.29H42V42.08A1,1,0,0,1,42.87,41H43c.61,0,.9.39.9,1.08v2.29Zm5-2.06v-2H49v.5a1.54,1.54,0,0,0-1.29-.6,2.16,2.16,0,0,0,0,4.31,1.54,1.54,0,0,0,1.29-.6v.5h.9Zm-3.33,0a1.25,1.25,0,1,1,1.25,1.32,1.24,1.24,0,0,1-1.25-1.22ZM69,40.14a2.42,2.42,0,0,1,.88.17,2.15,2.15,0,0,1,.7.45,2,2,0,0,1,.46.69,2.21,2.21,0,0,1,0,1.71,1.86,1.86,0,0,1-.46.68,2.18,2.18,0,0,1-.7.46,2.43,2.43,0,0,1-1.76,0,2.18,2.18,0,0,1-.7-.46,1.86,1.86,0,0,1-.46-.68,2.21,2.21,0,0,1,0-1.71,2,2,0,0,1,.46-.69,2.15,2.15,0,0,1,.7-.45A2.42,2.42,0,0,1,69,40.14ZM69,41a1.44,1.44,0,0,0-.51.09,1.62,1.62,0,0,0-.41.27,1.17,1.17,0,0,0-.27.42,1.52,1.52,0,0,0,0,1.07,1.22,1.22,0,0,0,.68.68,1.38,1.38,0,0,0,1,0,1.22,1.22,0,0,0,.41-.27,1.39,1.39,0,0,0,.27-.41,1.52,1.52,0,0,0,0-1.07,1.32,1.32,0,0,0-.27-.42,1.62,1.62,0,0,0-.41-.27A1.48,1.48,0,0,0,69,41ZM54.74,42.3a2,2,0,0,0-2-2.15,2.16,2.16,0,0,0,.06,4.31,2.46,2.46,0,0,0,1.68-.58l-.44-.66a2,2,0,0,1-1.19.43,1.14,1.14,0,0,1-1.23-1h3C54.73,42.54,54.74,42.42,54.74,42.3Zm-3.06-.36a1.05,1.05,0,0,1,1.09-1,1,1,0,0,1,1,1Zm6.82-.64A2.51,2.51,0,0,0,57.22,41c-.49,0-.78.18-.78.48s.31.35.69.4l.42.06c.9.13,1.44.51,1.44,1.23s-.69,1.34-1.87,1.34a3,3,0,0,1-1.78-.53l.42-.7a2.2,2.2,0,0,0,1.36.43c.61,0,.94-.18.94-.5s-.23-.36-.72-.43l-.42-.06c-.92-.13-1.42-.54-1.42-1.21s.67-1.31,1.71-1.31a3,3,0,0,1,1.67.43Zm4.29-.23H61.33v1.85c0,.41.15.69.59.69a1.68,1.68,0,0,0,.79-.23l.26.76a2.09,2.09,0,0,1-1.12.32c-1.05,0-1.42-.57-1.42-1.52V41.07H59.6v-.82h.83V39h.9v1.24h1.46Zm3.09-.92a2,2,0,0,1,.64.11l-.28.84a1.54,1.54,0,0,0-.56-.1c-.58,0-.87.38-.87,1v2.31h-.9V40.25h.89v.5a1.2,1.2,0,0,1,1.08-.6Zm6.18,3.61a.39.39,0,0,1,.3.12.38.38,0,0,1,.09.13.42.42,0,0,1,0,.31.3.3,0,0,1-.09.13.51.51,0,0,1-.13.09.53.53,0,0,1-.17,0,.41.41,0,0,1-.38-.26.34.34,0,0,1,0-.31.38.38,0,0,1,.09-.13.3.3,0,0,1,.13-.09A.45.45,0,0,1,72.06,43.76Zm0,.73a.28.28,0,0,0,.13,0l.1-.07a.33.33,0,0,0,0-.45l-.1-.07-.13,0-.12,0-.1.07a.31.31,0,0,0,0,.45A.32.32,0,0,0,72.06,44.49Zm0-.51a.11.11,0,0,1,.11,0,.1.1,0,0,1,0,.09.09.09,0,0,1,0,.07.12.12,0,0,1-.09,0l.12.14h-.09L72,44.21h0v.14h-.08V44Zm-.1.07v.1h.15a.08.08,0,0,0,0,0,.05.05,0,0,0,0,0H72Z" transform="translate(-23.19 0.9)"></path><rect class="cls-9" x="24.78" y="9.82" width="13.54" height="24.34"></rect><path class="cls-5" d="M48.84,21.09A15.42,15.42,0,0,1,54.75,8.92a15.48,15.48,0,1,0,0,24.34A15.42,15.42,0,0,1,48.84,21.09Z" transform="translate(-23.19 0.9)"></path><path class="cls-10" d="M78.32,30.68v-.49h.2v-.11H78v.11h.2v.49Zm1,0v-.6h-.16L79,30.5l-.18-.42h-.16v.6h.12v-.45l.16.39H79l.17-.39v.45Z" transform="translate(-23.19 0.9)"></path><path class="cls-10" d="M79.79,21.09a15.48,15.48,0,0,1-25,12.17,15.49,15.49,0,0,0,2.6-21.74,16,16,0,0,0-2.6-2.6,15.48,15.48,0,0,1,25,12.17Z" transform="translate(-23.19 0.9)"></path></svg> 